<?xml version="1.0" encoding="UTF-8" standalone="no"?>
<!DOCTYPE svg PUBLIC "-//W3C//DTD SVG 1.1//EN"
 "http://www.w3.org/Graphics/SVG/1.1/DTD/svg11.dtd">
<!-- Generated by graphviz version 2.36.0 (20140111.2315)
 -->
<!-- Title: e3_formalization Pages: 1 -->
<svg width="160pt" height="188pt"
 viewBox="0.00 0.00 160.00 188.00" xmlns="http://www.w3.org/2000/svg" xmlns:xlink="http://www.w3.org/1999/xlink">
<g id="graph0" class="graph" transform="scale(1 1) rotate(0) translate(4 184)">
<title>e3_formalization</title>
<polygon fill="white" stroke="none" points="-4,4 -4,-184 156,-184 156,4 -4,4"/>
<!-- E3_core_types -->
<g id="node1" class="node"><title>E3_core_types</title>
<ellipse fill="none" stroke="black" cx="69" cy="-18" rx="63.0666" ry="18"/>
<text text-anchor="middle" x="69" y="-14.3" font-family="Times,serif" font-size="14.00">E3_core_types</text>
</g>
<!-- E3 -->
<g id="node2" class="node"><title>E3</title>
<ellipse fill="none" stroke="black" cx="27" cy="-90" rx="27" ry="18"/>
<text text-anchor="middle" x="27" y="-86.3" font-family="Times,serif" font-size="14.00">E3</text>
</g>
<!-- E3&#45;&gt;E3_core_types -->
<g id="edge1" class="edge"><title>E3&#45;&gt;E3_core_types</title>
<path fill="none" stroke="black" d="M36.5305,-73.1159C41.5926,-64.679 47.9374,-54.1044 53.6721,-44.5465"/>
<polygon fill="black" stroke="black" points="56.7778,-46.173 58.9216,-35.7973 50.7754,-42.5715 56.7778,-46.173"/>
</g>
<!-- E3_spec -->
<g id="node3" class="node"><title>E3_spec</title>
<ellipse fill="none" stroke="black" cx="112" cy="-90" rx="39.9464" ry="18"/>
<text text-anchor="middle" x="112" y="-86.3" font-family="Times,serif" font-size="14.00">E3_spec</text>
</g>
<!-- E3_spec&#45;&gt;E3_core_types -->
<g id="edge2" class="edge"><title>E3_spec&#45;&gt;E3_core_types</title>
<path fill="none" stroke="black" d="M101.81,-72.411C96.6904,-64.0774 90.3754,-53.7972 84.6571,-44.4883"/>
<polygon fill="black" stroke="black" points="87.6325,-42.645 79.416,-35.9562 81.6679,-46.309 87.6325,-42.645"/>
</g>
<!-- E3_sound -->
<g id="node4" class="node"><title>E3_sound</title>
<ellipse fill="none" stroke="black" cx="69" cy="-162" rx="46.2191" ry="18"/>
<text text-anchor="middle" x="69" y="-158.3" font-family="Times,serif" font-size="14.00">E3_sound</text>
</g>
<!-- E3_sound&#45;&gt;E3 -->
<g id="edge4" class="edge"><title>E3_sound&#45;&gt;E3</title>
<path fill="none" stroke="black" d="M59.0466,-144.411C53.8994,-135.832 47.5145,-125.191 41.8017,-115.67"/>
<polygon fill="black" stroke="black" points="44.7391,-113.762 36.5929,-106.988 38.7366,-117.364 44.7391,-113.762"/>
</g>
<!-- E3_sound&#45;&gt;E3_spec -->
<g id="edge3" class="edge"><title>E3_sound&#45;&gt;E3_spec</title>
<path fill="none" stroke="black" d="M79.1904,-144.411C84.3849,-135.955 90.8106,-125.494 96.5948,-116.078"/>
<polygon fill="black" stroke="black" points="99.6308,-117.823 101.883,-107.47 93.6662,-114.159 99.6308,-117.823"/>
</g>
</g>
</svg>
